<?xml version="1.0" encoding="iso-8859-1"?>
<!-- Generator: Adobe Illustrator 19.0.0, SVG Export Plug-In . SVG Version: 6.00 Build 0)  -->
<svg version="1.1" id="Layer_1" xmlns="http://www.w3.org/2000/svg" xmlns:xlink="http://www.w3.org/1999/xlink" x="0px" y="0px"
	 viewBox="0 0 512 512" style="enable-background:new 0 0 512 512;" xml:space="preserve">
<g>
	<g>
		<path d="M328.465,96.409c-31.49-25.676-71.273-38.737-112.019-36.795c-41.034,1.961-79.642,19.051-108.712,48.122
			C78.661,136.809,61.57,175.421,59.612,216.46c-1.946,40.752,11.128,80.537,36.811,112.026c2.965,3.636,7.282,5.52,11.635,5.52
			c3.334,0,6.689-1.106,9.473-3.377c6.421-5.236,7.381-14.686,2.144-21.107c-43.868-53.786-39.88-131.414,9.276-180.57
			c49.15-49.147,126.77-53.142,180.554-9.288c6.421,5.235,15.871,4.275,21.107-2.147
			C335.848,111.095,334.887,101.645,328.465,96.409z"/>
	</g>
</g>
<g>
	<g>
		<path d="M497.186,185.718c-9.818-9.817-23.035-14.972-36.389-14.887c-4.475-12.573-13.827-23.18-26.309-29.049
			c-12.642-5.944-26.853-6.311-39.387-1.556c-3.845-4.659-8.492-8.589-13.69-11.622c13.789-19.778,11.358-47.302-5.905-64.565
			c-9.705-9.704-22.713-14.889-35.928-14.889c-0.153,0-0.307,0-0.461,0.002c-4.475-12.573-13.827-23.18-26.309-29.05
			c-12.644-5.945-26.855-6.311-39.387-1.555C264.932,8.259,252.563,1.48,238.88,0.215c-13.947-1.284-27.429,3.246-37.559,12.064
			c-11.48-6.814-25.408-8.977-38.704-5.476c-13.515,3.559-24.597,12.446-31.074,24.218c-13.141-2.543-26.999,0.182-38.32,8.08
			c-11.325,7.901-18.68,20.073-20.767,33.354c-13.281,2.087-25.452,9.441-33.354,20.768c-7.899,11.322-10.622,25.178-8.08,38.32
			c-11.771,6.478-20.659,17.56-24.218,31.074c-3.501,13.298-1.337,27.223,5.476,38.703c-8.817,10.13-13.354,23.61-12.064,37.56
			c1.265,13.682,8.043,26.052,18.329,34.539c-4.754,12.534-4.387,26.747,1.556,39.387c5.869,12.484,16.474,21.836,29.05,26.31
			c-0.122,13.372,5.071,26.572,14.887,36.39c9.792,9.79,22.881,14.813,35.989,14.813c10.004,0,20.017-2.937,28.578-8.906
			c3.033,5.197,6.962,9.842,11.62,13.686c-4.756,12.535-4.388,26.747,1.556,39.387c5.869,12.483,16.476,21.835,29.05,26.31
			c-0.122,13.372,5.071,26.572,14.887,36.39c9.792,9.79,22.881,14.813,35.988,14.813c10.426,0,20.865-3.18,29.655-9.668
			l250.97-250.971C516.977,231.517,514.764,203.297,497.186,185.718z M128.482,284.296c-3.503,13.297-1.339,27.223,5.475,38.705
			c-5.539,6.363-9.384,14.048-11.162,22.341l-11.72,11.723c-7.949,5.281-18.884,4.16-25.819-2.775
			c-5.773-5.773-7.651-14.372-4.782-21.907c1.766-4.636,1.125-9.844-1.71-13.915c-2.807-4.028-7.406-6.426-12.309-6.426
			c-0.121,0-0.241,0.002-0.36,0.002c-8.024,0-15.403-4.693-18.84-12.003c-3.473-7.386-2.281-16.062,3.039-22.102
			c3.297-3.745,4.517-8.883,3.254-13.71c-1.262-4.827-4.841-8.71-9.548-10.362c-7.7-2.701-13.158-9.667-13.905-17.748
			c-0.75-8.104,3.368-15.799,10.489-19.606c4.437-2.372,7.391-6.811,7.864-11.821c0.473-5.01-1.597-9.923-5.513-13.084
			c-6.381-5.151-9.173-13.532-7.115-21.35c2.056-7.805,8.561-13.583,16.574-14.721c5.122-0.728,9.505-4.042,11.602-8.764
			c0.045-0.101,0.105-0.238,0.142-0.322c1.913-4.465,1.547-9.58-0.985-13.726c-4.259-6.977-4.04-15.743,0.558-22.333
			c4.467-6.404,12.38-9.629,20.163-8.216c4.858,0.881,9.842-0.684,13.323-4.189l0.789-0.79c3.504-3.481,5.071-8.463,4.189-13.322
			c-1.411-7.783,1.814-15.697,8.217-20.165c6.59-4.597,15.356-4.816,22.333-0.557c4.184,2.554,9.354,2.903,13.845,0.933l0.175-0.078
			c4.739-2.093,8.065-6.484,8.792-11.615c1.138-8.012,6.916-14.517,14.721-16.573c7.817-2.059,16.197,0.734,21.35,7.115
			c3.161,3.916,8.08,5.986,13.083,5.512c5.01-0.473,9.448-3.426,11.82-7.864c3.807-7.121,11.506-11.241,19.607-10.489
			c8.08,0.747,15.047,6.205,17.748,13.905c1.651,4.708,5.534,8.287,10.361,9.549c4.828,1.261,9.966,0.042,13.709-3.254
			c6.04-5.32,14.716-6.511,22.103-3.039c7.372,3.467,12.084,10.943,12.002,19.048c-0.051,4.96,2.355,9.625,6.425,12.461
			c4.07,2.837,9.279,3.476,13.915,1.711c7.535-2.868,16.134-0.992,21.907,4.781c6.936,6.936,8.055,17.87,2.775,25.819
			l-11.725,11.725c-8.293,1.777-15.977,5.623-22.34,11.16c-11.481-6.813-25.407-8.977-38.705-5.476
			c-13.513,3.559-24.595,12.446-31.073,24.218c-13.139-2.54-26.998,0.182-38.321,8.08c-11.326,7.902-18.68,20.074-20.767,33.354
			c-13.281,2.087-25.451,9.442-33.354,20.768c-7.898,11.322-10.621,25.178-8.079,38.319
			C140.926,259.7,132.039,270.781,128.482,284.296z M478.744,232.754l-245.99,245.991c-7.95,5.278-18.882,4.159-25.818-2.776
			c-5.774-5.773-7.651-14.372-4.782-21.906c1.766-4.637,1.125-9.845-1.71-13.915c-2.807-4.029-7.406-6.427-12.309-6.427
			c-0.121,0-0.241,0.002-0.36,0.002c-8.024,0-15.403-4.693-18.84-12.003c-3.473-7.386-2.281-16.062,3.039-22.103
			c3.296-3.745,4.515-8.882,3.253-13.709c-1.262-4.827-4.841-8.709-9.548-10.361c-7.7-2.701-13.157-9.668-13.905-17.747
			c-0.749-8.106,3.368-15.801,10.488-19.607c4.438-2.372,7.391-6.811,7.865-11.821c0.473-5.01-1.597-9.923-5.512-13.083
			c-6.382-5.152-9.174-13.533-7.114-21.352c2.054-7.804,8.56-13.581,16.573-14.72c5.112-0.726,9.489-4.029,11.591-8.739
			c0.048-0.107,0.113-0.255,0.152-0.346c1.913-4.466,1.547-9.581-0.985-13.727c-4.259-6.977-4.04-15.744,0.558-22.334
			c4.468-6.402,12.375-9.628,20.164-8.216c4.859,0.882,9.842-0.685,13.323-4.189l0.772-0.772c3.516-3.481,5.091-8.473,4.207-13.342
			c-1.412-7.782,1.813-15.696,8.215-20.163c6.59-4.597,15.356-4.818,22.335-0.557c4.146,2.531,9.261,2.897,13.727,0.984
			c0.149-0.064,0.298-0.13,0.364-0.162c4.703-2.107,7.995-6.48,8.72-11.582c1.139-8.013,6.917-14.519,14.72-16.574
			c7.82-2.057,16.2,0.734,21.351,7.115c3.162,3.915,8.075,5.984,13.084,5.512c5.01-0.473,9.449-3.426,11.821-7.865
			c3.806-7.12,11.508-11.238,19.607-10.488c8.079,0.747,15.046,6.205,17.747,13.905c1.651,4.708,5.534,8.287,10.361,9.549
			c4.828,1.261,9.966,0.042,13.709-3.254c6.041-5.319,14.718-6.512,22.104-3.038c7.372,3.466,12.083,10.943,12.001,19.048
			c-0.051,4.96,2.355,9.625,6.425,12.461c4.071,2.836,9.281,3.475,13.915,1.711c7.535-2.868,16.134-0.992,21.907,4.781
			C482.905,213.872,484.025,224.805,478.744,232.754z"/>
	</g>
</g>
<g>
	<g>
		<path d="M450.145,218.089c-31.49-25.676-71.276-38.744-112.018-36.795c-41.034,1.961-79.643,19.051-108.713,48.122
			c-29.073,29.073-46.163,67.685-48.122,108.724c-1.945,40.752,11.129,80.537,36.812,112.026c2.965,3.636,7.282,5.52,11.635,5.52
			c3.334,0,6.689-1.106,9.473-3.377c6.42-5.236,7.38-14.686,2.143-21.107c-43.869-53.786-39.881-131.414,9.276-180.57
			c49.15-49.147,126.77-53.142,180.554-9.288c6.421,5.235,15.871,4.275,21.107-2.147
			C457.528,232.776,456.567,223.325,450.145,218.089z"/>
	</g>
</g>
<g>
</g>
<g>
</g>
<g>
</g>
<g>
</g>
<g>
</g>
<g>
</g>
<g>
</g>
<g>
</g>
<g>
</g>
<g>
</g>
<g>
</g>
<g>
</g>
<g>
</g>
<g>
</g>
<g>
</g>
</svg>
